<?xml version="1.0" encoding="UTF-8" standalone="no"?>
<!DOCTYPE svg PUBLIC "-//W3C//DTD SVG 1.1//EN" "http://www.w3.org/Graphics/SVG/1.1/DTD/svg11.dtd">
<svg width="100%" height="100%" viewBox="0 0 70 70" version="1.1" xmlns="http://www.w3.org/2000/svg" xmlns:xlink="http://www.w3.org/1999/xlink" xml:space="preserve" xmlns:serif="http://www.serif.com/" style="fill-rule:evenodd;clip-rule:evenodd;stroke-linejoin:round;stroke-miterlimit:2;">
    <g transform="matrix(1,0,0,1,-197.685904,-265.838818)">
        <g transform="matrix(0.83819,0,0,0.83819,-325.344543,23.623217)">
            <path d="M664.634,289.68C664.714,289.27 665.073,288.975 665.49,288.975C665.907,288.975 666.266,289.27 666.345,289.68L671.971,318.551C672.233,319.894 672.89,321.129 673.858,322.097C674.825,323.064 676.06,323.721 677.404,323.983L706.275,329.609C706.684,329.689 706.98,330.047 706.98,330.464C706.98,330.882 706.684,331.24 706.275,331.32L677.404,336.946C676.06,337.207 674.825,337.864 673.858,338.832C672.89,339.8 672.233,341.035 671.971,342.378L666.345,371.249C666.266,371.659 665.907,371.954 665.49,371.954C665.073,371.954 664.714,371.659 664.634,371.249L659.008,342.378C658.747,341.035 658.09,339.8 657.122,338.832C656.154,337.864 654.919,337.207 653.576,336.946L624.705,331.32C624.296,331.24 624,330.882 624,330.464C624,330.047 624.296,329.689 624.705,329.609L653.576,323.983C654.919,323.721 656.154,323.064 657.122,322.097C658.09,321.129 658.747,319.894 659.008,318.551L664.634,289.68Z" style="fill:white;"/>
        </g>
    </g>
</svg>
